<?xml version="1.0"?>
<svg width="29700" height="21000" xmlns="http://www.w3.org/2000/svg" xmlns:svg="http://www.w3.org/2000/svg" clip-rule="evenodd" version="1.1">
 <defs>
  <style type="text/css">
   <![CDATA[
    .str2 {stroke:black;stroke-width:10;stroke-opacity:0.501961}
    .str1 {stroke:black;stroke-width:50}
    .str5 {stroke:#434242;stroke-width:10}
    .str3 {stroke:black;stroke-width:10}
    .str0 {stroke:#000066;stroke-width:10}
    .str6 {stroke:#2B2A29;stroke-width:7.62}
    .str4 {stroke:black;stroke-width:7.62}
    .fil2 {fill:none}
    .fil0 {fill:#FEFEFE}
    .fil8 {fill:#D9DADA}
    .fil1 {fill:white}
    .fil5 {fill:#FEFEFE;fill-rule:nonzero}
    .fil4 {fill:#D9DADA;fill-rule:nonzero}
    .fil7 {fill:#434242;fill-rule:nonzero}
    .fil6 {fill:black;fill-rule:nonzero}
    .fil3 {fill:#FEFEFE;fill-rule:nonzero;fill-opacity:0.501961}
   ]]>
  </style>
 </defs>
 <g class="layer">
  <title>Layer 1</title>
  <g id="Plan_x0020_1">
   <metadata id="CorelCorpID_0Corel-Layer"/>
   <path class="fil2 str1" d="m2784.666584,15798.333374c246,22 472,251 683,363c81,37 137,116 203,172c81,69 416,395 283,499c-31,41 -102,102 -10,130c21,6 93,52 99,32c8,-23 -33,-63 -17,-101c11,-26 71,-26 97,-26c44,0 166,94 203,120c24,16 84,83 114,58c22,-19 15,-73 57,-77c26,-2 38,20 69,20c24,0 52,61 58,30c10,-48 16,-31 62,-31c0,-7 -37,-48 -43,-69c-15,-51 -21,-68 -62,-90c-17,-9 -10,-22 -6,-40c7,-31 -18,-35 -24,-65c13,-67 262,-205 328,-221c143,-36 292,13 431,38l208,56c99,26 162,119 245,175c38,26 63,63 107,82c43,19 98,36 134,68c63,86 230,68 326,68c79,0 18,-49 38,-80c17,-27 59,-27 87,-44c47,-28 43,2 84,4c63,2 97,-38 176,-24c92,17 145,106 214,158c31,24 68,-48 103,-26l117,72c20,34 84,71 115,98c120,104 270,172 391,282c43,56 141,171 210,189c67,17 152,54 202,109c34,37 48,23 92,23c22,0 89,57 131,66c48,10 109,-20 161,-15c139,13 219,134 323,204c34,83 186,146 203,237c15,85 54,73 132,77c70,3 115,-38 178,-59c35,-12 138,10 173,19c31,8 59,42 80,67c32,38 90,21 127,71c33,45 82,74 110,125c56,56 134,113 214,57c36,-25 47,-53 67,-90c21,-40 47,-65 80,-95c45,-14 132,-21 151,-71c17,-44 -4,-81 38,-119c68,-60 159,-99 239,-143c111,-62 289,-5 289,-168c0,-60 62,-62 95,-101c35,-41 14,-85 54,-129c39,-29 132,-81 144,-125c16,-58 -17,-92 37,-146c62,-62 137,-165 229,-152c81,12 109,-61 159,-114c34,-36 81,-1 113,-51c32,-50 143,-54 185,-92l153,-140c39,-38 69,-85 110,-118c51,-41 105,-49 161,-83c53,-33 76,-46 133,-63c22,-7 67,17 90,23c70,16 47,-82 146,-53c50,15 99,-1 147,27c20,12 53,36 76,36c22,0 27,-67 46,-95c40,-60 30,-95 99,-146c33,-24 51,-96 106,-90c55,6 -81,136 -87,148c-29,60 -35,75 -97,106l0,3c-2,0 14,2 17,3c50,15 85,-35 107,-69c21,-32 72,-33 81,-72c25,-101 55,-246 9,-346c-36,-79 -96,-87 -178,-95c-97,-10 -166,84 -225,147c-33,55 -125,43 -183,49c-51,5 -109,-1 -133,-49c-7,-13 -53,-97 -68,-69c-9,17 -14,105 -47,98c-21,-5 -138,-71 -140,-92c-2,-35 28,-103 54,-126c21,-19 46,-78 73,-51c68,66 99,0 164,0c32,0 57,-1 86,10c20,8 28,29 50,26l2,-2c0,-39 6,-77 6,-115c22,-59 11,-53 74,-55c64,-2 107,-123 192,-145c22,-6 56,15 82,15c73,0 190,-142 238,-193c34,-36 75,-69 126,-71c62,-3 67,-32 82,-86c40,-67 98,-155 189,-148c28,2 99,42 123,20c12,-11 -59,-58 -24,-81c15,-10 51,5 71,9c75,15 130,139 130,212c-4,50 41,129 60,175c25,59 32,89 99,102c118,24 274,306 252,428c-22,53 -28,144 -80,173c-44,24 -58,59 -75,106c-13,35 -43,41 -70,60c-83,57 -55,173 -130,242c-8,16 -67,71 -57,82c94,109 -314,249 -400,251c-217,7 -251,-218 -457,-218c-48,0 85,66 100,81l203,206c56,57 168,149 209,216c19,33 46,58 66,92c25,44 -4,52 57,52c31,0 45,26 73,33c25,6 56,-26 81,-31c47,-9 98,10 141,-9c60,-27 73,-125 107,-172c21,-30 42,-17 68,-30c32,-16 29,-38 45,-69c60,-42 124,-88 201,-63l150,48c30,10 90,37 61,-16c-13,-23 -46,-42 -64,-66c-29,-39 -15,-24 15,-37c46,-20 -87,-223 -48,-242c11,-6 50,7 73,-2c41,-16 15,-77 15,-110c0,-35 52,-66 68,-101c17,-26 20,-115 50,-68c12,19 27,62 52,62c22,0 34,-52 56,-63c10,-5 23,28 47,28c39,0 71,-118 108,-73c26,32 51,62 97,59c33,-2 69,-33 104,-39c33,-6 76,54 109,71c47,25 30,69 44,111c9,50 50,67 61,117c19,88 -53,144 38,201c58,36 27,75 -4,122c-24,37 -40,61 -89,56c-35,-4 -62,-6 -99,-4c-21,1 -150,-26 -101,28c44,49 36,81 16,141c-10,35 -32,65 -31,103c3,83 9,70 -68,92c-55,16 -138,-3 -182,-44c-26,-24 -50,-43 -68,-74c-16,-28 1,-57 -9,-87c-48,0 -98,-22 -151,-22c-51,0 -127,10 -174,26c-52,17 -100,26 -82,94c9,36 -13,58 -41,72c-10,5 -63,29 -55,46c2,5 39,-5 44,-6c65,-21 137,-8 195,23c58,31 59,-18 104,-37c64,-26 163,-2 206,54c15,20 51,49 60,66c11,21 9,48 18,69c65,0 -16,-99 -10,-135c13,-5 45,-42 57,-20c39,75 13,67 110,67c68,0 98,17 159,35c61,20 191,144 214,207c37,105 153,269 276,269c118,0 205,-179 331,-179c31,0 156,54 168,85c61,163 -84,5 -163,-23c-115,-41 -22,42 24,69c33,20 110,98 129,131c9,44 59,106 79,150l99,208c35,73 73,122 94,202c-2,35 -7,90 2,123c10,37 176,-3 203,-25c61,-48 37,-57 39,-127c10,-263 327,-89 439,1c11,7 34,28 47,28c18,0 -36,-60 -39,-66c-20,-35 -12,-53 -21,-89c-5,-21 -47,-32 -64,-42c-20,-11 8,-26 -1,-47c-10,-23 -8,-39 12,-11c28,40 84,52 84,109c0,30 10,62 32,83c51,49 2,66 26,111c24,44 95,76 111,124c27,74 82,107 88,191c5,82 88,223 152,271c24,19 91,65 71,101c-29,51 -51,45 -16,108c33,79 123,160 209,101c69,-47 68,-95 68,-173c0,-28 6,-45 26,-63c28,-26 16,-22 56,-15c65,13 32,-44 1,-60c-17,-9 -17,-50 -37,-66c-14,-12 -29,-25 -40,-39c-14,-17 41,-39 21,-71c-20,-33 -12,-78 0,-114c33,-45 47,-98 84,-140c38,-42 50,-35 32,-92c-23,-75 -55,-118 -31,-202c13,-45 27,-102 21,-147c-5,-39 -32,-38 -64,-51c-43,-18 -19,-16 -41,26c-10,18 -31,14 -43,31c-17,26 -31,56 -31,90c0,43 23,71 -23,91c-13,21 -63,11 -86,24c-67,39 -108,58 -127,135c-8,31 -72,51 -102,44c-32,-8 -22,-78 -14,-102c16,-47 -44,-45 -50,-75c-5,-27 4,-59 0,-89c-3,-24 12,-62 4,-82c-3,-9 -55,19 -69,19c-82,0 -38,-143 -110,-178c-92,-44 -27,-164 43,-196c45,-17 74,-51 122,-58c16,-2 10,75 57,22c13,-15 163,-74 181,-74c60,0 92,179 134,155c55,-30 60,-82 142,-79c88,4 67,-11 137,-39c11,64 51,14 95,11c28,-2 80,-53 99,-29c44,55 242,-31 252,-102l5,0c0,20 -6,60 -30,66l0,4l35,2c37,0 118,-23 142,-49c37,-40 40,10 12,37c-17,17 -47,17 -53,43c-10,45 151,-81 162,-82c28,-2 93,12 67,-36c-9,-16 21,-65 37,-62c13,2 14,113 107,47c27,-19 119,-53 119,-87c-10,-3 -37,-18 -37,-31c25,0 97,-27 70,22c-43,80 65,-20 83,-42l120,-146l323,-358l415,-415l729,-740l265,-243c111,-98 208,-179 336,-259c146,-91 297,-218 463,-275l230,-90l464,-161c167,-58 347,-129 526,-129l794,-18l297,5c78,1 86,-1 159,-32c113,-48 258,-22 380,-30l418,-28l467,1c71,-17 106,45 175,36c56,-8 98,-32 161,-32c91,0 231,-43 315,-22c99,26 71,-57 105,-110c8,-13 22,12 35,17c12,5 88,-41 108,-49c50,-22 125,-6 141,-55c20,-59 100,-69 149,-92c64,-12 137,-150 172,-213c19,-34 147,-203 137,-218c-37,-54 -22,-84 -68,-128c-16,-15 -33,-31 -39,-52c-6,-21 -41,-16 -55,-34c-3,-4 -14,-19 -11,-24c1,-2 75,5 82,2c10,-4 49,58 62,79c37,56 43,-43 62,-51c102,-43 8,71 -11,114c-47,106 48,36 89,23c91,-30 217,32 289,-43c68,-71 137,-47 160,-107l0,0l-1958,-972l-1588,-802l-1258,-633c-24,-22 -67,-28 -98,-31c-35,-4 -42,-15 -70,-28c-16,-8 -39,7 -54,10c-25,6 -39,-12 -68,0c-46,19 -57,8 -85,-26c12,-31 45,-51 61,-82c23,-46 5,-151 71,-166c94,-22 80,-131 128,-168c83,-64 41,-214 11,-291c-2,-5 -2,-5 -7,-5c-37,-4 -104,-64 -122,-86c-14,-17 -26,-47 -27,-69c-1,-13 -13,-58 -16,-68c-16,-51 -33,-89 -33,-159c0,-27 -106,-89 -119,-115c-13,-26 5,-62 -9,-80c-10,-12 -89,-66 -89,-88c0,-47 -23,-59 0,-101c46,-85 -21,-203 -35,-289c-10,-58 -14,-122 -5,-157c18,-77 18,-164 18,-252c0,-6 -212,-130 -95,-190c43,-22 -34,-14 -44,-51c-11,-40 86,-93 20,-133c-95,-58 -235,43 -235,-130c0,-27 -126,-97 -151,-97c-96,0 -73,-46 -144,-75c-37,-15 -65,22 -104,-2c-61,-37 -117,-68 -193,-68c-35,0 -68,-8 -104,-4c-36,4 -57,52 -58,57c-14,67 -172,-6 -172,51c0,33 29,67 -9,90c-81,48 -59,-11 -126,-15c-8,0 -18,-7 -22,-15c-5,-10 -10,-19 -15,-28c-7,-16 7,-40 4,-58c-2,-10 -13,-19 -19,-26c-10,-11 -18,-13 -30,-16c-14,-3 -29,-1 -43,-2l-30,-3c-46,19 -106,-1 -154,-1c-21,0 -30,16 -45,28c-62,46 -108,132 -128,202c-13,46 -74,214 -131,128c-48,-74 -98,-39 -170,-32c-17,9 -79,12 -99,12c-43,0 -72,-37 -115,-43c-61,-8 -48,-35 -83,-73c-59,-65 -113,86 -144,111c-20,37 -48,84 -57,123c-5,23 -8,62 -22,81c-13,17 -45,36 -65,21c-36,-21 -71,-44 -108,-64c-65,-35 -131,123 -235,40c-70,-56 -102,-79 -204,-75c-79,3 -74,-33 -133,-68c-60,-36 -169,-13 -219,-51c-41,-31 -46,-65 -106,-86c-69,-23 -94,-19 -133,-88c-10,-17 -112,-51 -133,-51c-32,0 -55,35 -77,35c-10,0 -16,-76 -24,-86c-24,-34 -71,-16 -108,-5c-39,11 -81,9 -120,18c-35,9 -64,9 -100,20c-131,39 -13,126 -69,192c-30,35 -207,28 -246,-2c-78,-58 -52,-54 -151,-18c-71,25 -97,38 -127,35c-24,-2 -49,-14 -101,-35c-85,-35 -171,18 -246,-37c-110,-79 -247,35 -307,-71c-35,-62 -154,11 -204,-69c-79,-126 -120,62 -217,20c-78,-34 -157,-67 -235,-101c-40,-17 -33,-77 -84,-95c-38,-14 -286,-105 -292,-159c-26,-216 -217,-273 -365,-168c-59,42 -98,-27 -148,40c-64,85 -131,80 -237,80c-152,0 -175,-168 -336,-91c-134,64 -390,-151 -489,51c-12,24 -58,-11 -93,11c-55,34 -44,99 -75,152c-38,65 -27,93 -27,166c0,74 -82,46 -53,108c23,47 182,327 68,327c-69,0 -173,-57 -221,-46c-65,16 -54,48 -77,79c-3,4 -7,9 -12,13c-39,33 -63,30 -99,88c-43,68 -92,-5 -141,-7c-32,-1 -64,16 -93,7c-58,-18 -67,-107 -102,-126c-26,-15 -50,49 -71,16c-17,-25 -2,-85 -47,-80c-48,5 -86,78 -99,-11c-12,-86 -44,-17 -69,-42c-41,-41 -35,-59 -88,-95c-68,-47 -68,4 -97,-99c-7,-26 -50,-50 -68,-75c-71,-102 -180,-52 -212,-172c-22,-83 -30,-185 -106,-239c-71,-51 -13,-74 -35,-128c-46,-112 -81,-96 -177,-141c-53,-25 -5,-65 -44,-101c-36,-33 -78,40 -122,-22c-32,-44 -63,-89 -95,-133c-44,-61 -125,-23 -151,-95c-15,-41 -96,-118 -131,-157c-43,-48 -138,-109 -157,-148c-50,-103 -127,-27 -153,-75c-21,-38 -75,-69 -80,-99c-18,-92 -119,-52 -179,-91c-72,-48 -144,-95 -215,-143c-37,-24 -44,-78 -97,-97c-103,-36 -32,-26 -77,-102c-40,-68 -120,33 -175,-26c-103,-111 -69,11 -148,40c-29,11 -151,-129 -166,-159c-67,-129 -15,-124 -7,-256c5,-75 -28,-56 -64,-104c-30,-40 31,-65 31,-101c0,-27 -32,-43 -57,-27c-92,60 -26,20 -109,11c-96,-10 -36,58 -135,-16c-70,-52 -185,9 -190,-111c-5,-134 -98,-153 -119,-271c-9,-50 -49,-109 -49,-148c0,-68 42,-111 -16,-161c-14,-12 -48,-174 -44,-183c12,-27 73,-3 82,-33c13,-41 -17,-105 -29,-146c-26,-86 84,-34 37,-135c-36,-77 18,-83 18,-150c0,-118 -298,-61 -252,-159c56,-119 -96,-9 -130,-77c-13,-27 -27,-88 -69,-69c-42,18 -25,-80 -88,-46c-75,41 -79,-90 -133,-75c-19,5 -43,70 -77,18c-20,-30 -35,-39 -60,-11c-64,73 -111,-69 -203,-58c-27,3 -13,111 -66,58c-25,-25 -31,-58 -62,-88c-86,-81 -136,163 -190,2c-28,-84 -2,-87 -73,-137c-48,-34 -87,-35 -144,-104c-93,-112 -43,-15 -89,15c-5,3 -1,13 -7,15c-21,6 -241,44 -142,91c35,17 -86,115 26,137c6,1 6,11 0,11c-78,6 -136,99 -86,161c66,81 -119,48 -155,46c-81,-5 27,88 35,121c30,124 -479,82 -381,-124c18,-38 13,-155 -2,-201c-11,-33 -80,40 -80,-26c0,-45 14,-60 -37,-108c-59,-55 53,-207 -113,-207c-61,0 -35,-43 -60,-68c-43,-42 -88,-39 -47,-108c37,-64 6,-37 -51,-68c-30,-16 42,-48 42,-77c0,-34 -47,-24 -55,-48c-22,-67 57,-112 11,-175c-40,-55 40,-71 40,-102c0,-18 -20,-18 -15,-46c20,-105 -11,-132 -115,-97c-172,58 -66,-176 -181,-121c-64,31 -90,-4 -93,-64c-3,-48 13,-96 -42,-126c-25,-14 20,-43 38,-62c27,-27 25,-40 15,-72c-11,-37 -57,-71 -94,-81c-44,-12 -88,21 -109,-39c-43,-120 -132,47 -211,-7c-49,-34 -12,-71 -25,-112c-10,-35 -67,-23 -92,-23c-62,0 -1,-65 -25,-80c-14,-9 -38,10 -44,20c-25,43 -77,22 -119,54c-146,113 -169,-92 -255,31c-21,30 -70,14 -99,6c-52,-15 -97,-42 -151,-55c-61,-14 -132,-78 -193,-37c-46,30 -58,-19 -111,-17c-21,1 -91,45 -111,61c-33,27 -47,86 -89,101c-18,7 -79,22 -43,58c21,21 48,34 18,66c-55,58 -91,15 -149,51c-25,15 -67,88 -98,38c-23,-37 6,-104 -10,-147c-33,-89 -173,48 -205,-46c-17,-50 -65,-24 -69,-59c-6,-47 -58,-15 -88,-43c-15,-14 -27,-17 -48,-17c-38,0 -99,104 -123,11c-6,-22 -89,-95 -109,-109c-25,-17 -73,-8 -89,-35c-51,-87 -105,-40 -166,6c-42,31 -35,6 -79,-4c-23,-5 -5,-54 -10,-71c-7,-22 -57,7 -67,12c-61,30 -71,-54 -120,-24c-44,27 -42,-13 -80,6c-62,31 -18,-84 -80,-31c-36,31 -54,10 -67,-22l0,0c-10,-25 -16,-57 -24,-78c-7,-18 -39,-43 -52,-61c-15,-22 -21,-57 -39,-71l-1,13973l0,0l-15,-4zm11984,1201c29,-4 83,38 104,54c26,20 57,42 76,0c11,-23 71,-11 97,-28c29,-19 0,-70 39,-95c55,-36 120,-17 180,-34c40,-11 113,-9 78,-59c-65,-96 -72,-163 -215,-155c-108,6 -141,-2 -230,-48c-27,-14 -101,-54 -130,-54c-66,0 -38,241 -38,286c0,23 -48,230 16,143l24,-8l-1,-2zm3694,1254c-28,5 -54,-2 -78,-23c-34,-29 -39,-3 -78,8c-29,8 -63,9 -90,17c-10,3 -63,20 -67,0c-5,-29 115,-50 37,-80c-8,-3 -41,-5 -44,-11c-15,-34 -29,-48 -69,-52c-12,-1 -102,-4 -100,17c1,12 101,13 120,23c29,16 -28,38 -39,45c-37,22 -12,39 6,53c18,14 -8,43 18,54c44,18 71,23 108,57c76,70 120,-28 179,-57c21,-10 44,-17 70,-17c12,0 63,-8 47,-29l-17,-5l-3,0zm78,-164c-17,3 -21,5 -38,-3c-34,-15 -54,-22 -93,-10c-44,13 -34,43 1,61c21,11 57,19 81,14c16,-4 32,-14 47,-19c19,-7 46,0 66,-5c7,-2 14,-6 14,-15c-1,-17 -18,-18 -32,-18l-46,-5z" id="svg_3"/>
  </g>
 </g>
</svg>